<?xml version="1.0" encoding="UTF-8" standalone="no"?>
<!-- Created with Inkscape (http://www.inkscape.org/) -->

<svg
   xmlns:dc="http://purl.org/dc/elements/1.1/"
   xmlns:cc="http://creativecommons.org/ns#"
   xmlns:rdf="http://www.w3.org/1999/02/22-rdf-syntax-ns#"
   xmlns:svg="http://www.w3.org/2000/svg"
   xmlns="http://www.w3.org/2000/svg"
   xmlns:sodipodi="http://sodipodi.sourceforge.net/DTD/sodipodi-0.dtd"
   xmlns:inkscape="http://www.inkscape.org/namespaces/inkscape"
   width="512"
   height="512"
   viewBox="0 0 512.00001 512.00001"
   id="svg2"
   version="1.1"
   inkscape:version="0.91 r13725"
   sodipodi:docname="Directory.svg"
   inkscape:export-filename="D:\NetBeansProjects\SignatureField\Directory.png"
   inkscape:export-xdpi="90"
   inkscape:export-ydpi="90">
  <defs
     id="defs4" />
  <sodipodi:namedview
     id="base"
     pagecolor="#00b4f0"
     bordercolor="#666666"
     borderopacity="1.0"
     inkscape:pageopacity="0"
     inkscape:pageshadow="2"
     inkscape:zoom="0.5"
     inkscape:cx="267.44844"
     inkscape:cy="315.15575"
     inkscape:document-units="px"
     inkscape:current-layer="layer1"
     showgrid="true"
     units="px"
     inkscape:window-width="1920"
     inkscape:window-height="1017"
     inkscape:window-x="-8"
     inkscape:window-y="-8"
     inkscape:window-maximized="1">
    <inkscape:grid
       type="xygrid"
       id="grid4164" />
  </sodipodi:namedview>
  <metadata
     id="metadata7">
    <rdf:RDF>
      <cc:Work
         rdf:about="">
        <dc:format>image/svg+xml</dc:format>
        <dc:type
           rdf:resource="http://purl.org/dc/dcmitype/StillImage" />
        <dc:title></dc:title>
      </cc:Work>
    </rdf:RDF>
  </metadata>
  <g
     inkscape:label="Ebene 1"
     inkscape:groupmode="layer"
     id="layer1"
     transform="translate(0,-540.36216)"
     style="opacity:1">
    <rect
       style="fill:#0000ff;fill-opacity:0;fill-rule:evenodd;stroke:#ffffff;stroke-width:25.47351265;stroke-linecap:butt;stroke-linejoin:round;stroke-miterlimit:4;stroke-dasharray:none;stroke-opacity:1"
       id="rect3336"
       width="369.23206"
       height="238.92239"
       x="71.383972"
       y="676.90094" />
    <path
       style="fill:#ffffff;fill-opacity:1;stroke:#ffffff;stroke-width:4.022;stroke-linejoin:round;stroke-miterlimit:4;stroke-dasharray:none;stroke-opacity:1"
       d="m 441.64541,608.11749 20.09335,20.10383 -149.81006,164.85717 c -45.11373,14.99077 -35.11372,24.99077 -20.05153,-20.05205 z"
       id="rect4150"
       inkscape:connector-curvature="0"
       sodipodi:nodetypes="ccccc" />
    <path
       style="fill:#ffffff;fill-opacity:1;stroke:#ffffff;stroke-width:4.74900007;stroke-linejoin:round;stroke-miterlimit:4;stroke-dasharray:none;stroke-opacity:1"
       id="path4169"
       d="m 101.06108,841.62426 c 6.28008,-7.59729 11.5568,-15.94524 15.90323,-24.78855 1.49785,-3.04754 2.81913,-6.17872 4.22869,-9.26808 7.65314,-18.43691 12.45755,-37.8599 17.46859,-57.13223 2.28785,-7.8749 3.9435,-16.00634 7.02674,-23.63231 1.51,-3.64764 10.16992,-9.26184 10.05929,-4.10725 -0.0144,0.66838 -0.18924,1.32361 -0.28845,1.98473 -0.44806,2.98579 -0.6755,4.37533 -1.1733,7.52121 -1.43205,11.10741 -2.86264,22.2126 -4.46802,33.29679 -0.94562,6.6944 -1.76014,13.41165 -2.21302,20.15879 -0.20789,1.85164 0.37542,3.4208 1.0445,5.08752 1.2259,2.73719 2.52854,5.41636 4.4604,7.72839 0.4317,0.39655 0.84866,0.9428 1.48597,1.03903 0.21052,0.0318 0.44427,0.006 0.63153,-0.0957 0.28641,-0.15496 1.02495,-0.79176 0.73493,-0.64366 -7.8429,4.00529 -9.93378,6.46668 -6.08029,2.53355 7.90267,-9.41019 13.59913,-20.38197 19.68517,-30.98988 5.70924,-9.82563 11.40858,-19.69755 18.25848,-28.78484 3.32986,-4.07256 5.93676,-5.4609 12.02121,-7.74731 0.95144,-0.35754 0.92918,4.38624 0.93278,4.58109 -0.0236,6.15167 -1.03266,12.24965 -2.01172,18.30662 -1.361,8.87029 -3.32351,17.62677 -5.129,26.41184 -1.2139,6.67909 -3.07127,13.23026 -4.06659,19.94688 -0.49117,4.25345 -0.72134,8.55744 -0.1169,12.80794 0.21503,0.67697 0.51756,2.57889 1.58571,2.63044 0.32889,0.0159 0.85103,-0.44027 1.03719,-0.57264 3.66138,-2.4513 -1.36625,0.94957 -6.81796,3.70958 -0.52662,0.26661 0.92842,-0.72936 1.38374,-1.105 1.53266,-1.26446 2.91482,-2.59095 4.25921,-4.05161 1.95752,-2.16524 3.44966,-4.67505 5.04389,-7.10361 3.1106,-4.77594 4.06595,-3.93994 11.29065,-8.19441 1.17719,0.35406 1.40709,1.57958 1.69201,2.61781 0.47297,1.82625 0.61127,3.71448 0.69809,5.59194 0.0904,2.33096 0.28741,4.67185 0.64324,6.97854 0.34057,1.4631 0.66462,2.95684 2.13813,3.60545 1.15076,0.71624 2.53863,0.8085 3.85839,0.89504 1.93981,0.0633 3.88446,0.15168 5.81816,-0.0343 0.4288,-0.1122 0.86517,-0.19869 1.2864,-0.33661 0.49524,-0.16217 0.98979,-0.33501 1.45874,-0.56226 0.52879,-0.25625 2.04128,-1.16489 1.52528,-0.88378 -10.82683,5.89836 -7.86555,4.73951 -3.80157,1.17363 3.46644,-3.54195 6.36078,-7.58187 9.63451,-11.29795 4.43508,-5.08455 10.30601,-7.61797 16.17776,-10.91251 2.21948,-0.80794 3.68969,-0.13478 5.63455,0.96887 2.07121,1.61439 3.69846,3.73936 5.16383,5.9004 1.07383,1.67973 1.94468,3.45765 2.79717,5.25479 0.67191,1.25021 1.33931,2.31923 2.72248,2.78472 1.15058,-0.0422 2.27139,-0.39294 3.29611,-0.8999 0.20602,-0.13442 0.83191,-0.52483 0.61807,-0.40325 -2.74657,1.56147 -5.47541,3.15395 -8.21732,4.72358 -0.29622,0.16957 0.58405,-0.3535 0.88012,-0.52333 3.33092,-1.91075 6.65616,-3.83159 10.00074,-5.71834 2.62714,-1.48203 -5.22315,3.01875 -7.84839,4.50415 -0.3459,0.19572 0.67296,-0.42304 1.00943,-0.63455 5.81844,-3.59264 20.10606,-11.57871 2.54056,-1.55605 -1.56529,0.89314 1.38006,-0.87825 1.68999,-1.11681 0.71314,-0.79125 1.43755,-1.53306 2.23784,-2.23285 0.43007,-0.2559 0.74228,-0.60291 1.04845,-0.98885 0,0 9.69352,-4.09614 9.69352,-4.09614 l 0,0 c -0.36735,0.38655 -0.57051,0.83954 -0.96061,1.20584 -0.9161,0.55616 -1.65165,1.25031 -2.31823,2.0854 -0.49427,0.63935 -0.94174,0.95486 -1.63985,1.36057 -3.22903,1.87657 -6.4597,3.75034 -9.68268,5.63728 -2.67376,1.56538 5.35057,-3.12562 8.035,-4.67263 0.32312,-0.18621 -0.63375,0.39331 -0.95062,0.58997 -4.04006,2.76041 -1.8178,1.2788 -10.95793,6.43563 -2.63302,1.48554 5.22426,-3.04398 7.84083,-4.55832 0.28863,-0.16705 -0.56843,0.34902 -0.85689,0.51635 -9.78636,5.67701 -6.29831,4.10675 -10.40777,5.92123 -1.25261,0.38409 -2.52209,0.77347 -3.79488,0.23516 -1.45934,-0.77242 -2.32305,-1.98547 -3.07322,-3.43665 -0.85437,-1.73791 -1.61946,-3.51572 -2.65425,-5.16079 -1.37408,-2.01924 -2.91201,-4.03391 -4.92466,-5.45183 -1.87292,-0.91395 -3.16468,-1.10076 -5.09357,-0.18237 2.67304,-1.56332 5.35491,-3.11164 8.01912,-4.68994 0.34547,-0.20466 -0.71834,0.36086 -1.06203,0.56849 -0.409,0.24708 -0.80599,0.51446 -1.19346,0.79409 -1.56157,1.12696 -3.10046,2.32089 -4.35699,3.79098 -3.3571,3.66245 -6.26511,7.68975 -9.57765,11.38866 -4.55838,4.25208 -6.95312,5.20368 -13.7033,9.14745 -1.41652,0.82759 -2.99133,1.30216 -4.61044,1.50568 -1.98765,0.0954 -3.98285,0.087 -5.96802,-0.064 -1.45166,-0.1622 -2.89461,-0.43152 -4.13731,-1.25151 -1.56784,-1.06363 -2.15505,-2.63847 -2.54514,-4.45046 -0.37977,-2.33619 -0.55112,-4.71915 -0.70088,-7.07848 -0.0843,-1.78744 -0.17615,-3.59511 -0.64896,-5.33021 -0.10996,-0.3438 -0.22031,-1.84017 -0.71092,-1.05738 14.99414,-8.9036 9.00562,-6.54673 6.52865,-2.56741 -1.79141,2.37144 -3.15636,5.05527 -5.15826,7.27584 -4.44704,5.24666 -10.23471,9.08676 -16.56173,11.86658 -0.29558,0.0257 -0.59227,0.11334 -0.88673,0.077 -1.70044,-0.20983 -2.30046,-2.40879 -2.61913,-3.74449 -0.56208,-4.37907 -0.32571,-8.78872 0.18274,-13.16549 1.01706,-6.78508 2.92933,-13.38624 4.27385,-20.11013 1.82174,-8.75796 3.80524,-17.48856 5.10615,-26.34579 0.88397,-5.94552 1.7792,-11.94328 1.74044,-17.96727 -0.019,-0.56865 -0.0229,-1.13802 -0.0571,-1.70596 -0.0228,-0.37727 -0.0835,-0.75141 -0.11381,-1.12814 -0.004,-0.052 -0.0341,-0.12889 0.0104,-0.15615 2.77209,-1.69913 5.58819,-3.32539 8.38229,-4.98808 -0.38755,0.26908 -0.81212,0.49145 -1.16265,0.80726 -0.57099,0.51441 -1.05892,1.11414 -1.58839,1.6712 -7.32985,8.96974 -13.20341,18.99711 -19.04208,28.97147 -5.9233,10.45297 -11.40763,21.23382 -18.73048,30.80778 -3.84465,4.60513 -1.53826,2.22305 -11.50989,7.91766 -1.41957,0.81069 -2.74079,-0.54208 -3.59033,-1.46701 -1.89621,-2.4426 -3.27483,-5.18989 -4.66206,-7.94265 -0.81867,-1.81704 -1.43501,-3.55039 -1.16194,-5.59852 0.71619,-6.8587 1.80363,-13.67127 2.7622,-20.49858 1.6654,-11.03345 3.10897,-22.09625 4.27445,-33.19441 0.17364,-1.40485 0.36311,-2.80784 0.52093,-4.21455 0.18323,-1.63312 0.15726,-3.29424 0.46934,-4.90769 0.0236,-0.12191 0.12772,-0.22653 0.23503,-0.28899 2.97883,-1.73391 5.97931,-3.43123 9.00192,-5.08763 0.19852,-0.1088 -0.34564,0.29243 -0.51847,0.43865 -1.16536,2.18089 -2.03673,4.44943 -2.85693,6.78518 -1.98533,5.6538 -3.63549,11.4174 -5.28418,17.17574 -5.33722,19.29064 -10.2482,38.77787 -17.69003,57.39552 -1.36309,3.08615 -2.65415,6.20512 -4.08926,9.25844 -4.03473,8.58426 -8.81914,16.7837 -14.5319,24.36197 0,0 -9.61064,4.14158 -9.61064,4.14158 z"
       inkscape:connector-curvature="0" />
  </g>
</svg>
